<svg width="600" height="350" viewBox="0 0 600 350" fill="none" xmlns="http://www.w3.org/2000/svg">
<path d="M101.134 80.0965L89.5117 57.9637H96.6899V41.3L108.141 63.7747H101.134V80.0965Z" fill="url(#paint0_linear_824_78492)"/>
<g filter="url(#filter0_di_824_78492)">
<path fill-rule="evenodd" clip-rule="evenodd" d="M66.2676 37.5402C66.2676 48.6956 75.174 57.7709 86.264 58.043V58.0493H86.7767H115.66C124.156 58.0493 131.042 51.1626 131.042 42.6674C131.042 34.1723 124.156 27.2856 115.66 27.2856C112.043 27.2856 108.717 28.5343 106.091 30.6243C103.253 22.7001 95.6768 17.031 86.7767 17.031C75.4498 17.031 66.2676 26.2133 66.2676 37.5402Z" fill="url(#paint1_linear_824_78492)" fill-opacity="0.9" shape-rendering="crispEdges"/>
</g>
<path d="M256.162 49.5894C256.162 48.5039 257.042 47.6239 258.128 47.6239C259.213 47.6239 260.093 48.5039 260.093 49.5894V64.2876C260.093 65.3731 259.213 66.2531 258.128 66.2531C257.042 66.2531 256.162 65.3731 256.162 64.2876V49.5894Z" fill="url(#paint2_linear_824_78492)"/>
<path d="M264.024 52.324C264.024 51.2385 264.904 50.3585 265.989 50.3585C267.075 50.3585 267.955 51.2385 267.955 52.324V70.0986C267.955 71.184 267.075 72.064 265.989 72.064C264.904 72.064 264.024 71.184 264.024 70.0986V52.324Z" fill="url(#paint3_linear_824_78492)"/>
<path d="M271.886 48.0512C271.886 46.9657 272.766 46.0858 273.851 46.0858C274.937 46.0858 275.817 46.9657 275.817 48.0512V61.0403C275.817 62.1258 274.937 63.0058 273.851 63.0058C272.766 63.0058 271.886 62.1258 271.886 61.0403V48.0512Z" fill="url(#paint4_linear_824_78492)"/>
<path d="M279.748 48.0512C279.748 46.9657 280.628 46.0858 281.713 46.0858C282.799 46.0858 283.679 46.9657 283.679 48.0512V64.2876C283.679 65.3731 282.799 66.2531 281.713 66.2531C280.628 66.2531 279.748 65.3731 279.748 64.2876V48.0512Z" fill="url(#paint5_linear_824_78492)"/>
<path d="M279.748 69.9276C279.748 68.8422 280.628 67.9622 281.713 67.9622C282.799 67.9622 283.679 68.8422 283.679 69.9276V74.3713C283.679 75.4568 282.799 76.3368 281.713 76.3368C280.628 76.3368 279.748 75.4568 279.748 74.3713V69.9276Z" fill="url(#paint6_linear_824_78492)"/>
<path d="M271.886 67.1931C271.886 66.1076 272.766 65.2276 273.851 65.2276C274.937 65.2276 275.817 66.1076 275.817 67.1931V72.6622C275.817 73.7477 274.937 74.6277 273.851 74.6277C272.766 74.6277 271.886 73.7477 271.886 72.6622V67.1931Z" fill="url(#paint7_linear_824_78492)"/>
<path d="M256.162 70.9531C256.162 69.8676 257.042 68.9876 258.128 68.9876C259.213 68.9876 260.093 69.8676 260.093 70.9531V72.6622C260.093 73.7477 259.213 74.6277 258.128 74.6277C257.042 74.6277 256.162 73.7477 256.162 72.6622V70.9531Z" fill="url(#paint8_linear_824_78492)"/>
<g filter="url(#filter1_di_824_78492)">
<path fill-rule="evenodd" clip-rule="evenodd" d="M237.268 37.5402C237.268 48.6956 246.174 57.7709 257.264 58.043V58.0493H257.777H286.66C295.156 58.0493 302.042 51.1626 302.042 42.6674C302.042 34.1723 295.156 27.2856 286.66 27.2856C283.043 27.2856 279.717 28.5343 277.091 30.6243C274.253 22.7001 266.677 17.031 257.777 17.031C246.45 17.031 237.268 26.2133 237.268 37.5402Z" fill="url(#paint9_linear_824_78492)" fill-opacity="0.9" shape-rendering="crispEdges"/>
</g>
<g clip-path="url(#clip0_824_78492)">
<circle cx="446.433" cy="33.9492" r="14.0146" transform="rotate(180 446.433 33.9492)" fill="url(#paint10_radial_824_78492)"/>
<g filter="url(#filter2_f_824_78492)">
<circle cx="446.432" cy="33.9495" r="14.0146" transform="rotate(178.562 446.432 33.9495)" fill="url(#paint11_radial_824_78492)"/>
</g>
<g filter="url(#filter3_f_824_78492)">
<circle cx="446.431" cy="33.9495" r="14.0146" transform="rotate(-177.493 446.431 33.9495)" fill="url(#paint12_radial_824_78492)"/>
</g>
<circle cx="446.433" cy="33.9492" r="14.0146" transform="rotate(180 446.433 33.9492)" fill="url(#paint13_radial_824_78492)" fill-opacity="0.12"/>
<circle cx="446.433" cy="33.9492" r="14.0146" transform="rotate(180 446.433 33.9492)" fill="url(#paint14_radial_824_78492)"/>
</g>
<g filter="url(#filter4_di_824_78492)">
<path fill-rule="evenodd" clip-rule="evenodd" d="M405.268 48.3113C405.268 59.4668 414.174 68.5421 425.264 68.8142V68.8205H425.777H454.66C463.156 68.8205 470.042 61.9338 470.042 53.4386C470.042 44.9435 463.156 38.0568 454.66 38.0568C451.043 38.0568 447.717 39.3055 445.091 41.3955C442.253 33.4713 434.677 27.8022 425.777 27.8022C414.45 27.8022 405.268 36.9844 405.268 48.3113Z" fill="url(#paint15_linear_824_78492)" fill-opacity="0.9" shape-rendering="crispEdges"/>
</g>
<line x1="209.894" y1="2.36625e-08" x2="209.894" y2="117.719" stroke="url(#paint16_linear_824_78492)" stroke-width="1.0312"/>
<line x1="386.42" y1="2.36625e-08" x2="386.42" y2="117.719" stroke="url(#paint17_linear_824_78492)" stroke-width="1.0312"/>
<path d="M155.643 51.5519H153.931V40.0643L151.725 42.3948L150.693 41.343L154.138 37.7957H155.643V51.5519Z" fill="url(#paint18_linear_824_78492)"/>
<path d="M161.642 51.5519H159.745L165.292 39.3218H157.888V37.7957H167.272V38.9712L161.642 51.5519Z" fill="url(#paint19_linear_824_78492)"/>
<path d="M175.927 51.7994C172.029 51.7994 168.915 48.912 168.915 44.6841C168.915 40.4562 172.029 37.5688 175.927 37.5688C178.423 37.5688 180.114 38.7444 181.207 40.2912L179.763 41.0955C178.98 39.9406 177.557 39.095 175.927 39.095C172.978 39.095 170.689 41.4049 170.689 44.6841C170.689 47.9427 172.978 50.2732 175.927 50.2732C177.557 50.2732 178.98 49.4482 179.763 48.2727L181.228 49.077C180.073 50.6444 178.423 51.7994 175.927 51.7994Z" fill="url(#paint20_linear_824_78492)"/>
<path d="M182.626 41.5905C182.626 39.7137 183.925 38.1875 185.967 38.1875C188.05 38.1875 189.328 39.7137 189.328 41.5905C189.328 43.4673 188.05 44.9934 185.967 44.9934C183.925 44.9934 182.626 43.4673 182.626 41.5905ZM188.112 41.5905C188.112 40.2499 187.328 39.2187 185.967 39.2187C184.626 39.2187 183.863 40.2499 183.863 41.5905C183.863 42.9517 184.626 44.0035 185.967 44.0035C187.328 44.0035 188.112 42.9517 188.112 41.5905Z" fill="url(#paint21_linear_824_78492)"/>
<path d="M499.87 51.5519H490.424V50.1907C495.374 46.2928 498.055 44.0035 498.055 41.6317C498.055 39.8787 496.611 39.1156 495.188 39.1156C493.538 39.1156 492.259 39.8168 491.455 40.848L490.403 39.7549C491.455 38.3731 493.249 37.5894 495.188 37.5894C497.477 37.5894 499.808 38.8887 499.808 41.6317C499.808 44.4366 496.962 46.994 493.126 50.0257H499.87V51.5519Z" fill="url(#paint22_linear_824_78492)"/>
<path d="M506.818 51.5519H505.106V40.0643L502.899 42.3948L501.868 41.343L505.312 37.7957H506.818V51.5519Z" fill="url(#paint23_linear_824_78492)"/>
<path d="M516.488 51.7994C512.59 51.7994 509.476 48.912 509.476 44.6841C509.476 40.4562 512.59 37.5688 516.488 37.5688C518.983 37.5688 520.674 38.7444 521.768 40.2912L520.324 41.0955C519.54 39.9406 518.117 39.095 516.488 39.095C513.539 39.095 511.249 41.4049 511.249 44.6841C511.249 47.9427 513.539 50.2732 516.488 50.2732C518.117 50.2732 519.54 49.4482 520.324 48.2727L521.788 49.077C520.633 50.6444 518.983 51.7994 516.488 51.7994Z" fill="url(#paint24_linear_824_78492)"/>
<path d="M523.186 41.5905C523.186 39.7137 524.485 38.1875 526.527 38.1875C528.61 38.1875 529.889 39.7137 529.889 41.5905C529.889 43.4673 528.61 44.9934 526.527 44.9934C524.485 44.9934 523.186 43.4673 523.186 41.5905ZM528.672 41.5905C528.672 40.2499 527.888 39.2187 526.527 39.2187C525.187 39.2187 524.424 40.2499 524.424 41.5905C524.424 42.9517 525.187 44.0035 526.527 44.0035C527.888 44.0035 528.672 42.9517 528.672 41.5905Z" fill="url(#paint25_linear_824_78492)"/>
<path d="M329.241 51.5519H327.529V40.0643L325.322 42.3948L324.291 41.343L327.735 37.7957H329.241V51.5519Z" fill="url(#paint26_linear_824_78492)"/>
<path d="M331.919 48.0664C331.919 46.2309 333.487 44.9728 335.198 44.4572C333.61 44.0035 332.146 42.9723 332.146 41.1574C332.146 38.6825 334.559 37.5894 336.848 37.5894C339.117 37.5894 341.571 38.6825 341.571 41.1574C341.571 42.9723 340.086 44.0035 338.498 44.4572C340.21 44.9728 341.777 46.2309 341.777 48.0664C341.777 50.3969 339.55 51.7994 336.848 51.7994C334.126 51.7994 331.919 50.4176 331.919 48.0664ZM339.839 41.3842C339.839 39.9612 338.498 39.1156 336.848 39.1156C335.178 39.1156 333.858 39.9612 333.858 41.3842C333.858 43.0548 336.023 43.6116 336.848 43.756C337.694 43.6116 339.839 43.0548 339.839 41.3842ZM340.045 47.8808C340.045 46.0865 337.694 45.3234 336.848 45.2203C336.003 45.3234 333.631 46.0865 333.631 47.8808C333.631 49.3657 335.137 50.2732 336.848 50.2732C338.539 50.2732 340.045 49.3657 340.045 47.8808Z" fill="url(#paint27_linear_824_78492)"/>
<path d="M350.894 51.7994C346.996 51.7994 343.882 48.912 343.882 44.6841C343.882 40.4562 346.996 37.5688 350.894 37.5688C353.39 37.5688 355.081 38.7444 356.174 40.2912L354.731 41.0955C353.947 39.9406 352.524 39.095 350.894 39.095C347.945 39.095 345.656 41.4049 345.656 44.6841C345.656 47.9427 347.945 50.2732 350.894 50.2732C352.524 50.2732 353.947 49.4482 354.731 48.2727L356.195 49.077C355.04 50.6444 353.39 51.7994 350.894 51.7994Z" fill="url(#paint28_linear_824_78492)"/>
<path d="M357.593 41.5905C357.593 39.7137 358.892 38.1875 360.934 38.1875C363.017 38.1875 364.296 39.7137 364.296 41.5905C364.296 43.4673 363.017 44.9934 360.934 44.9934C358.892 44.9934 357.593 43.4673 357.593 41.5905ZM363.079 41.5905C363.079 40.2499 362.295 39.2187 360.934 39.2187C359.593 39.2187 358.83 40.2499 358.83 41.5905C358.83 42.9517 359.593 44.0035 360.934 44.0035C362.295 44.0035 363.079 42.9517 363.079 41.5905Z" fill="url(#paint29_linear_824_78492)"/>
<rect opacity="0.1" x="26.834" y="288.694" width="546.151" height="41.3057" rx="7.11679" fill="white"/>
<path d="M53.6926 314.006H50.8926L47.6606 309.734L46.8286 310.726V314.006H44.5566V303.334H46.8286V308.102L50.6046 303.334H53.4046L49.1646 308.342L53.6926 314.006Z" fill="#01A3FF"/>
<path d="M61.9285 314.006H59.8965V309.334C59.8965 308.262 59.3365 307.894 58.4725 307.894C57.6725 307.894 57.0485 308.342 56.7125 308.806V314.006H54.6805V306.278H56.7125V307.286C57.2085 306.694 58.1525 306.086 59.4165 306.086C61.1125 306.086 61.9285 307.046 61.9285 308.55V314.006Z" fill="#01A3FF"/>
<path d="M67.5301 314.198C64.9861 314.198 63.4501 312.342 63.4501 310.134C63.4501 307.942 64.9861 306.086 67.5301 306.086C70.0901 306.086 71.6261 307.942 71.6261 310.134C71.6261 312.342 70.0901 314.198 67.5301 314.198ZM67.5301 312.39C68.7941 312.39 69.5141 311.35 69.5141 310.134C69.5141 308.934 68.7941 307.894 67.5301 307.894C66.2661 307.894 65.5621 308.934 65.5621 310.134C65.5621 311.35 66.2661 312.39 67.5301 312.39Z" fill="#01A3FF"/>
<path d="M82.0776 314.006H79.9176L78.2856 308.742L76.6536 314.006H74.4776L72.1256 306.278H74.2376L75.6776 311.478L77.3736 306.278H79.1816L80.8776 311.478L82.3176 306.278H84.4296L82.0776 314.006Z" fill="#01A3FF"/>
<path d="M86.4385 305.142C85.7825 305.142 85.2225 304.598 85.2225 303.926C85.2225 303.254 85.7825 302.71 86.4385 302.71C87.1105 302.71 87.6545 303.254 87.6545 303.926C87.6545 304.598 87.1105 305.142 86.4385 305.142ZM87.4625 314.006H85.4305V306.278H87.4625V314.006Z" fill="#01A3FF"/>
<path d="M96.7254 314.006H94.6934V309.334C94.6934 308.262 94.1334 307.894 93.2694 307.894C92.4694 307.894 91.8454 308.342 91.5094 308.806V314.006H89.4774V306.278H91.5094V307.286C92.0054 306.694 92.9494 306.086 94.2134 306.086C95.9094 306.086 96.7254 307.046 96.7254 308.55V314.006Z" fill="#01A3FF"/>
<path d="M98.583 315.99L99.495 314.518C100.119 315.206 100.935 315.478 101.911 315.478C102.887 315.478 104.039 315.046 104.039 313.526V312.742C103.431 313.51 102.599 313.958 101.655 313.958C99.719 313.958 98.247 312.598 98.247 310.022C98.247 307.494 99.703 306.086 101.655 306.086C102.583 306.086 103.415 306.486 104.039 307.27V306.278H106.087V313.478C106.087 316.422 103.815 317.142 101.911 317.142C100.583 317.142 99.543 316.838 98.583 315.99ZM104.039 311.27V308.774C103.703 308.262 102.967 307.894 102.295 307.894C101.143 307.894 100.343 308.694 100.343 310.022C100.343 311.35 101.143 312.15 102.295 312.15C102.967 312.15 103.703 311.766 104.039 311.27Z" fill="#01A3FF"/>
<path d="M114.788 314.198C113.364 314.198 112.596 313.462 112.596 312.086V308.054H111.316V306.278H112.596V304.166H114.644V306.278H116.212V308.054H114.644V311.542C114.644 312.022 114.9 312.39 115.348 312.39C115.652 312.39 115.94 312.278 116.052 312.166L116.484 313.702C116.18 313.974 115.636 314.198 114.788 314.198Z" fill="#01A3FF"/>
<path d="M124.866 314.006H122.834V309.302C122.834 308.23 122.274 307.894 121.394 307.894C120.61 307.894 119.986 308.342 119.634 308.806V314.006H117.602V303.334H119.634V307.286C120.13 306.694 121.09 306.086 122.354 306.086C124.05 306.086 124.866 307.014 124.866 308.518V314.006Z" fill="#01A3FF"/>
<path d="M127.892 305.142C127.236 305.142 126.676 304.598 126.676 303.926C126.676 303.254 127.236 302.71 127.892 302.71C128.564 302.71 129.108 303.254 129.108 303.926C129.108 304.598 128.564 305.142 127.892 305.142ZM128.916 314.006H126.884V306.278H128.916V314.006Z" fill="#01A3FF"/>
<path d="M130.259 312.998L131.139 311.574C131.699 312.102 132.851 312.63 133.811 312.63C134.691 312.63 135.107 312.326 135.107 311.846C135.107 311.302 134.435 311.11 133.555 310.934C132.227 310.678 130.515 310.358 130.515 308.518C130.515 307.222 131.651 306.086 133.683 306.086C134.995 306.086 136.035 306.534 136.787 307.142L135.987 308.534C135.523 308.038 134.643 307.638 133.699 307.638C132.963 307.638 132.483 307.91 132.483 308.358C132.483 308.838 133.091 309.014 133.955 309.19C135.283 309.446 137.059 309.798 137.059 311.718C137.059 313.142 135.859 314.198 133.715 314.198C132.371 314.198 131.075 313.75 130.259 312.998Z" fill="#01A3FF"/>
<path d="M146.713 308.054H145.145V314.006H143.097V308.054H141.817V306.278H143.097V305.862C143.097 304.182 144.185 303.174 145.705 303.174C146.281 303.174 146.809 303.302 147.177 303.494L146.761 304.934C146.585 304.822 146.345 304.774 146.105 304.774C145.529 304.774 145.145 305.158 145.145 305.894V306.278H146.713V308.054Z" fill="#01A3FF"/>
<path d="M151.468 314.198C148.924 314.198 147.388 312.342 147.388 310.134C147.388 307.942 148.924 306.086 151.468 306.086C154.028 306.086 155.564 307.942 155.564 310.134C155.564 312.342 154.028 314.198 151.468 314.198ZM151.468 312.39C152.732 312.39 153.452 311.35 153.452 310.134C153.452 308.934 152.732 307.894 151.468 307.894C150.204 307.894 149.5 308.934 149.5 310.134C149.5 311.35 150.204 312.39 151.468 312.39Z" fill="#01A3FF"/>
<path d="M159.103 314.006H157.071V306.278H159.103V307.334C159.647 306.646 160.607 306.102 161.567 306.102V308.086C161.423 308.054 161.231 308.038 161.007 308.038C160.335 308.038 159.439 308.406 159.103 308.902V314.006Z" fill="#01A3FF"/>
<path d="M162.341 310.134C162.341 307.894 163.989 306.086 166.341 306.086C168.645 306.086 170.213 307.814 170.213 310.342V310.79H164.469C164.597 311.766 165.381 312.582 166.693 312.582C167.413 312.582 168.261 312.294 168.757 311.814L169.653 313.126C168.869 313.846 167.669 314.198 166.469 314.198C164.117 314.198 162.341 312.614 162.341 310.134ZM166.341 307.702C165.077 307.702 164.533 308.646 164.437 309.414H168.245C168.197 308.678 167.685 307.702 166.341 307.702Z" fill="#01A3FF"/>
<path d="M171.185 310.134C171.185 307.766 172.897 306.086 175.281 306.086C176.865 306.086 177.825 306.774 178.337 307.494L177.009 308.726C176.641 308.198 176.081 307.894 175.377 307.894C174.145 307.894 173.281 308.79 173.281 310.134C173.281 311.478 174.145 312.39 175.377 312.39C176.081 312.39 176.641 312.07 177.009 311.558L178.337 312.79C177.825 313.51 176.865 314.198 175.281 314.198C172.897 314.198 171.185 312.518 171.185 310.134Z" fill="#01A3FF"/>
<path d="M186.337 314.006H184.305V313.206C183.777 313.83 182.865 314.198 181.857 314.198C180.625 314.198 179.169 313.366 179.169 311.638C179.169 309.83 180.625 309.174 181.857 309.174C182.881 309.174 183.793 309.494 184.305 310.118V309.046C184.305 308.262 183.633 307.75 182.609 307.75C181.777 307.75 181.009 308.054 180.353 308.662L179.585 307.302C180.529 306.47 181.745 306.086 182.961 306.086C184.721 306.086 186.337 306.79 186.337 309.014V314.006ZM184.305 312.15V311.19C183.969 310.742 183.329 310.518 182.673 310.518C181.873 310.518 181.217 310.95 181.217 311.686C181.217 312.406 181.873 312.822 182.673 312.822C183.329 312.822 183.969 312.598 184.305 312.15Z" fill="#01A3FF"/>
<path d="M187.68 312.998L188.56 311.574C189.12 312.102 190.272 312.63 191.232 312.63C192.112 312.63 192.528 312.326 192.528 311.846C192.528 311.302 191.856 311.11 190.976 310.934C189.648 310.678 187.936 310.358 187.936 308.518C187.936 307.222 189.072 306.086 191.104 306.086C192.416 306.086 193.456 306.534 194.208 307.142L193.408 308.534C192.944 308.038 192.064 307.638 191.12 307.638C190.384 307.638 189.904 307.91 189.904 308.358C189.904 308.838 190.512 309.014 191.376 309.19C192.704 309.446 194.48 309.798 194.48 311.718C194.48 313.142 193.28 314.198 191.136 314.198C189.792 314.198 188.496 313.75 187.68 312.998Z" fill="#01A3FF"/>
<path d="M198.569 314.198C197.145 314.198 196.377 313.462 196.377 312.086V308.054H195.097V306.278H196.377V304.166H198.425V306.278H199.993V308.054H198.425V311.542C198.425 312.022 198.681 312.39 199.129 312.39C199.433 312.39 199.721 312.278 199.833 312.166L200.265 313.702C199.961 313.974 199.417 314.198 198.569 314.198Z" fill="#01A3FF"/>
<path d="M202.168 316.198L201.288 315.478C201.8 315.206 202.392 314.55 202.52 313.99C202.472 314.006 202.328 314.038 202.216 314.038C201.608 314.038 201.128 313.558 201.128 312.87C201.128 312.166 201.704 311.59 202.376 311.59C203.128 311.59 203.816 312.182 203.816 313.222C203.816 314.422 203.144 315.494 202.168 316.198Z" fill="#01A3FF"/>
<path d="M218.515 314.006H216.355L214.723 308.742L213.091 314.006H210.915L208.563 306.278H210.675L212.115 311.478L213.811 306.278H215.619L217.315 311.478L218.755 306.278H220.867L218.515 314.006Z" fill="#01A3FF"/>
<path d="M229.132 314.006H227.1V309.302C227.1 308.23 226.54 307.894 225.66 307.894C224.876 307.894 224.252 308.342 223.9 308.806V314.006H221.868V303.334H223.9V307.286C224.396 306.694 225.356 306.086 226.62 306.086C228.316 306.086 229.132 307.014 229.132 308.518V314.006Z" fill="#01A3FF"/>
<path d="M237.821 314.006H235.789V313.206C235.261 313.83 234.349 314.198 233.341 314.198C232.109 314.198 230.653 313.366 230.653 311.638C230.653 309.83 232.109 309.174 233.341 309.174C234.365 309.174 235.277 309.494 235.789 310.118V309.046C235.789 308.262 235.117 307.75 234.093 307.75C233.261 307.75 232.493 308.054 231.837 308.662L231.069 307.302C232.013 306.47 233.229 306.086 234.445 306.086C236.205 306.086 237.821 306.79 237.821 309.014V314.006ZM235.789 312.15V311.19C235.453 310.742 234.813 310.518 234.157 310.518C233.357 310.518 232.701 310.95 232.701 311.686C232.701 312.406 233.357 312.822 234.157 312.822C234.813 312.822 235.453 312.598 235.789 312.15Z" fill="#01A3FF"/>
<path d="M242.429 314.198C241.005 314.198 240.237 313.462 240.237 312.086V308.054H238.957V306.278H240.237V304.166H242.285V306.278H243.853V308.054H242.285V311.542C242.285 312.022 242.541 312.39 242.989 312.39C243.293 312.39 243.581 312.278 243.693 312.166L244.125 313.702C243.821 313.974 243.277 314.198 242.429 314.198Z" fill="#01A3FF"/>
<path d="M248.841 310.134C248.841 307.766 250.553 306.086 252.937 306.086C254.521 306.086 255.481 306.774 255.993 307.494L254.665 308.726C254.297 308.198 253.737 307.894 253.033 307.894C251.801 307.894 250.937 308.79 250.937 310.134C250.937 311.478 251.801 312.39 253.033 312.39C253.737 312.39 254.297 312.07 254.665 311.558L255.993 312.79C255.481 313.51 254.521 314.198 252.937 314.198C250.553 314.198 248.841 312.518 248.841 310.134Z" fill="#01A3FF"/>
<path d="M259.353 314.006H257.321V303.334H259.353V314.006Z" fill="#01A3FF"/>
<path d="M264.952 314.198C262.408 314.198 260.872 312.342 260.872 310.134C260.872 307.942 262.408 306.086 264.952 306.086C267.512 306.086 269.048 307.942 269.048 310.134C269.048 312.342 267.512 314.198 264.952 314.198ZM264.952 312.39C266.216 312.39 266.936 311.35 266.936 310.134C266.936 308.934 266.216 307.894 264.952 307.894C263.688 307.894 262.984 308.934 262.984 310.134C262.984 311.35 263.688 312.39 264.952 312.39Z" fill="#01A3FF"/>
<path d="M273.148 314.198C271.724 314.198 270.956 313.462 270.956 312.086V308.054H269.676V306.278H270.956V304.166H273.004V306.278H274.572V308.054H273.004V311.542C273.004 312.022 273.26 312.39 273.708 312.39C274.012 312.39 274.3 312.278 274.412 312.166L274.844 313.702C274.54 313.974 273.996 314.198 273.148 314.198Z" fill="#01A3FF"/>
<path d="M283.226 314.006H281.194V309.302C281.194 308.23 280.634 307.894 279.754 307.894C278.97 307.894 278.346 308.342 277.994 308.806V314.006H275.962V303.334H277.994V307.286C278.49 306.694 279.45 306.086 280.714 306.086C282.41 306.086 283.226 307.014 283.226 308.518V314.006Z" fill="#01A3FF"/>
<path d="M284.747 310.134C284.747 307.894 286.395 306.086 288.747 306.086C291.051 306.086 292.619 307.814 292.619 310.342V310.79H286.875C287.003 311.766 287.787 312.582 289.099 312.582C289.819 312.582 290.667 312.294 291.163 311.814L292.059 313.126C291.275 313.846 290.075 314.198 288.875 314.198C286.523 314.198 284.747 312.614 284.747 310.134ZM288.747 307.702C287.483 307.702 286.939 308.646 286.843 309.414H290.651C290.603 308.678 290.091 307.702 288.747 307.702Z" fill="#01A3FF"/>
<path d="M293.415 312.998L294.295 311.574C294.855 312.102 296.007 312.63 296.967 312.63C297.847 312.63 298.263 312.326 298.263 311.846C298.263 311.302 297.591 311.11 296.711 310.934C295.383 310.678 293.671 310.358 293.671 308.518C293.671 307.222 294.807 306.086 296.839 306.086C298.151 306.086 299.191 306.534 299.943 307.142L299.143 308.534C298.679 308.038 297.799 307.638 296.855 307.638C296.119 307.638 295.639 307.91 295.639 308.358C295.639 308.838 296.247 309.014 297.111 309.19C298.439 309.446 300.215 309.798 300.215 311.718C300.215 313.142 299.015 314.198 296.871 314.198C295.527 314.198 294.231 313.75 293.415 312.998Z" fill="#01A3FF"/>
<path d="M313.166 314.006H311.118V313.03C310.51 313.782 309.662 314.198 308.734 314.198C306.782 314.198 305.31 312.726 305.31 310.15C305.31 307.622 306.766 306.086 308.734 306.086C309.646 306.086 310.51 306.486 311.118 307.27V303.334H313.166V314.006ZM311.118 311.51V308.774C310.766 308.262 310.046 307.894 309.358 307.894C308.206 307.894 307.406 308.806 307.406 310.15C307.406 311.478 308.206 312.39 309.358 312.39C310.046 312.39 310.766 312.022 311.118 311.51Z" fill="#01A3FF"/>
<path d="M318.765 314.198C316.221 314.198 314.685 312.342 314.685 310.134C314.685 307.942 316.221 306.086 318.765 306.086C321.325 306.086 322.861 307.942 322.861 310.134C322.861 312.342 321.325 314.198 318.765 314.198ZM318.765 312.39C320.029 312.39 320.749 311.35 320.749 310.134C320.749 308.934 320.029 307.894 318.765 307.894C317.501 307.894 316.797 308.934 316.797 310.134C316.797 311.35 317.501 312.39 318.765 312.39Z" fill="#01A3FF"/>
<path d="M328.19 317.03L328.494 315.206C328.67 315.286 328.942 315.334 329.134 315.334C329.662 315.334 330.014 315.19 330.206 314.774L330.494 314.118L327.358 306.278H329.534L331.55 311.654L333.566 306.278H335.758L332.126 315.27C331.55 316.726 330.526 317.11 329.198 317.142C328.958 317.142 328.446 317.094 328.19 317.03Z" fill="#01A3FF"/>
<path d="M340.249 314.198C337.705 314.198 336.169 312.342 336.169 310.134C336.169 307.942 337.705 306.086 340.249 306.086C342.809 306.086 344.345 307.942 344.345 310.134C344.345 312.342 342.809 314.198 340.249 314.198ZM340.249 312.39C341.513 312.39 342.233 311.35 342.233 310.134C342.233 308.934 341.513 307.894 340.249 307.894C338.985 307.894 338.281 308.934 338.281 310.134C338.281 311.35 338.985 312.39 340.249 312.39Z" fill="#01A3FF"/>
<path d="M353.1 314.006H351.068V313.03C350.54 313.622 349.612 314.198 348.348 314.198C346.652 314.198 345.852 313.27 345.852 311.766V306.278H347.884V310.966C347.884 312.038 348.444 312.39 349.308 312.39C350.092 312.39 350.716 311.958 351.068 311.51V306.278H353.1V314.006Z" fill="#01A3FF"/>
<path d="M361.244 314.006H359.212V306.278H361.244V307.334C361.788 306.646 362.748 306.102 363.708 306.102V308.086C363.564 308.054 363.372 308.038 363.148 308.038C362.476 308.038 361.58 308.406 361.244 308.902V314.006Z" fill="#01A3FF"/>
<path d="M364.481 310.134C364.481 307.894 366.129 306.086 368.481 306.086C370.785 306.086 372.353 307.814 372.353 310.342V310.79H366.609C366.737 311.766 367.521 312.582 368.833 312.582C369.553 312.582 370.401 312.294 370.897 311.814L371.793 313.126C371.009 313.846 369.809 314.198 368.609 314.198C366.257 314.198 364.481 312.614 364.481 310.134ZM368.481 307.702C367.217 307.702 366.673 308.646 366.577 309.414H370.385C370.337 308.678 369.825 307.702 368.481 307.702Z" fill="#01A3FF"/>
<path d="M373.325 310.134C373.325 307.766 375.037 306.086 377.421 306.086C379.005 306.086 379.965 306.774 380.477 307.494L379.149 308.726C378.781 308.198 378.221 307.894 377.517 307.894C376.285 307.894 375.421 308.79 375.421 310.134C375.421 311.478 376.285 312.39 377.517 312.39C378.221 312.39 378.781 312.07 379.149 311.558L380.477 312.79C379.965 313.51 379.005 314.198 377.421 314.198C375.037 314.198 373.325 312.518 373.325 310.134Z" fill="#01A3FF"/>
<path d="M385.39 314.198C382.846 314.198 381.31 312.342 381.31 310.134C381.31 307.942 382.846 306.086 385.39 306.086C387.95 306.086 389.486 307.942 389.486 310.134C389.486 312.342 387.95 314.198 385.39 314.198ZM385.39 312.39C386.654 312.39 387.374 311.35 387.374 310.134C387.374 308.934 386.654 307.894 385.39 307.894C384.126 307.894 383.422 308.934 383.422 310.134C383.422 311.35 384.126 312.39 385.39 312.39Z" fill="#01A3FF"/>
<path d="M402.625 314.006H400.577V309.126C400.577 308.406 400.257 307.894 399.425 307.894C398.705 307.894 398.113 308.374 397.825 308.79V314.006H395.777V309.126C395.777 308.406 395.457 307.894 394.625 307.894C393.921 307.894 393.329 308.374 393.025 308.806V314.006H390.993V306.278H393.025V307.286C393.345 306.822 394.369 306.086 395.553 306.086C396.689 306.086 397.409 306.614 397.697 307.494C398.145 306.79 399.169 306.086 400.353 306.086C401.777 306.086 402.625 306.838 402.625 308.422V314.006Z" fill="#01A3FF"/>
<path d="M416.25 314.006H414.202V309.126C414.202 308.406 413.882 307.894 413.05 307.894C412.33 307.894 411.738 308.374 411.45 308.79V314.006H409.402V309.126C409.402 308.406 409.082 307.894 408.25 307.894C407.546 307.894 406.954 308.374 406.65 308.806V314.006H404.618V306.278H406.65V307.286C406.97 306.822 407.994 306.086 409.178 306.086C410.314 306.086 411.034 306.614 411.322 307.494C411.77 306.79 412.794 306.086 413.978 306.086C415.402 306.086 416.25 306.838 416.25 308.422V314.006Z" fill="#01A3FF"/>
<path d="M417.747 310.134C417.747 307.894 419.395 306.086 421.747 306.086C424.051 306.086 425.619 307.814 425.619 310.342V310.79H419.875C420.003 311.766 420.787 312.582 422.099 312.582C422.819 312.582 423.667 312.294 424.163 311.814L425.059 313.126C424.275 313.846 423.075 314.198 421.875 314.198C419.523 314.198 417.747 312.614 417.747 310.134ZM421.747 307.702C420.483 307.702 419.939 308.646 419.843 309.414H423.651C423.603 308.678 423.091 307.702 421.747 307.702Z" fill="#01A3FF"/>
<path d="M434.335 314.006H432.303V309.334C432.303 308.262 431.743 307.894 430.879 307.894C430.079 307.894 429.455 308.342 429.119 308.806V314.006H427.087V306.278H429.119V307.286C429.615 306.694 430.559 306.086 431.823 306.086C433.519 306.086 434.335 307.046 434.335 308.55V314.006Z" fill="#01A3FF"/>
<path d="M443.712 314.006H441.664V313.03C441.056 313.782 440.208 314.198 439.28 314.198C437.328 314.198 435.856 312.726 435.856 310.15C435.856 307.622 437.312 306.086 439.28 306.086C440.192 306.086 441.056 306.486 441.664 307.27V303.334H443.712V314.006ZM441.664 311.51V308.774C441.312 308.262 440.592 307.894 439.904 307.894C438.752 307.894 437.952 308.806 437.952 310.15C437.952 311.478 438.752 312.39 439.904 312.39C440.592 312.39 441.312 312.022 441.664 311.51Z" fill="#01A3FF"/>
<path d="M452.141 314.006H449.869V303.334H452.141V314.006Z" fill="#01A3FF"/>
<path d="M457.634 312.998L458.514 311.574C459.074 312.102 460.226 312.63 461.186 312.63C462.066 312.63 462.482 312.326 462.482 311.846C462.482 311.302 461.81 311.11 460.93 310.934C459.602 310.678 457.89 310.358 457.89 308.518C457.89 307.222 459.026 306.086 461.058 306.086C462.37 306.086 463.41 306.534 464.162 307.142L463.362 308.534C462.898 308.038 462.018 307.638 461.074 307.638C460.338 307.638 459.858 307.91 459.858 308.358C459.858 308.838 460.466 309.014 461.33 309.19C462.658 309.446 464.434 309.798 464.434 311.718C464.434 313.142 463.234 314.198 461.09 314.198C459.746 314.198 458.45 313.75 457.634 312.998Z" fill="#01A3FF"/>
<path d="M473.195 314.006H471.163V309.302C471.163 308.23 470.603 307.894 469.723 307.894C468.939 307.894 468.315 308.342 467.963 308.806V314.006H465.931V303.334H467.963V307.286C468.459 306.694 469.419 306.086 470.683 306.086C472.379 306.086 473.195 307.014 473.195 308.518V314.006Z" fill="#01A3FF"/>
<path d="M478.796 314.198C476.252 314.198 474.716 312.342 474.716 310.134C474.716 307.942 476.252 306.086 478.796 306.086C481.356 306.086 482.892 307.942 482.892 310.134C482.892 312.342 481.356 314.198 478.796 314.198ZM478.796 312.39C480.06 312.39 480.78 311.35 480.78 310.134C480.78 308.934 480.06 307.894 478.796 307.894C477.532 307.894 476.828 308.934 476.828 310.134C476.828 311.35 477.532 312.39 478.796 312.39Z" fill="#01A3FF"/>
<path d="M491.647 314.006H489.615V313.03C489.087 313.622 488.159 314.198 486.895 314.198C485.199 314.198 484.399 313.27 484.399 311.766V306.278H486.431V310.966C486.431 312.038 486.991 312.39 487.855 312.39C488.639 312.39 489.263 311.958 489.615 311.51V306.278H491.647V314.006Z" fill="#01A3FF"/>
<path d="M495.697 314.006H493.665V303.334H495.697V314.006Z" fill="#01A3FF"/>
<path d="M505.072 314.006H503.024V313.03C502.416 313.782 501.568 314.198 500.64 314.198C498.688 314.198 497.216 312.726 497.216 310.15C497.216 307.622 498.672 306.086 500.64 306.086C501.552 306.086 502.416 306.486 503.024 307.27V303.334H505.072V314.006ZM503.024 311.51V308.774C502.672 308.262 501.952 307.894 501.264 307.894C500.112 307.894 499.312 308.806 499.312 310.15C499.312 311.478 500.112 312.39 501.264 312.39C501.952 312.39 502.672 312.022 503.024 311.51Z" fill="#01A3FF"/>
<path d="M520.125 314.006H517.965L516.333 308.742L514.701 314.006H512.525L510.173 306.278H512.285L513.725 311.478L515.421 306.278H517.229L518.925 311.478L520.365 306.278H522.477L520.125 314.006Z" fill="#01A3FF"/>
<path d="M522.981 310.134C522.981 307.894 524.629 306.086 526.981 306.086C529.285 306.086 530.853 307.814 530.853 310.342V310.79H525.109C525.237 311.766 526.021 312.582 527.333 312.582C528.053 312.582 528.901 312.294 529.397 311.814L530.293 313.126C529.509 313.846 528.309 314.198 527.109 314.198C524.757 314.198 522.981 312.614 522.981 310.134ZM526.981 307.702C525.717 307.702 525.173 308.646 525.077 309.414H528.885C528.837 308.678 528.325 307.702 526.981 307.702Z" fill="#01A3FF"/>
<path d="M538.993 314.006H536.961V313.206C536.433 313.83 535.521 314.198 534.513 314.198C533.281 314.198 531.825 313.366 531.825 311.638C531.825 309.83 533.281 309.174 534.513 309.174C535.537 309.174 536.449 309.494 536.961 310.118V309.046C536.961 308.262 536.289 307.75 535.265 307.75C534.433 307.75 533.665 308.054 533.009 308.662L532.241 307.302C533.185 306.47 534.401 306.086 535.617 306.086C537.377 306.086 538.993 306.79 538.993 309.014V314.006ZM536.961 312.15V311.19C536.625 310.742 535.985 310.518 535.329 310.518C534.529 310.518 533.873 310.95 533.873 311.686C533.873 312.406 534.529 312.822 535.329 312.822C535.985 312.822 536.625 312.598 536.961 312.15Z" fill="#01A3FF"/>
<path d="M543.041 314.006H541.009V306.278H543.041V307.334C543.585 306.646 544.545 306.102 545.505 306.102V308.086C545.361 308.054 545.169 308.038 544.945 308.038C544.273 308.038 543.377 308.406 543.041 308.902V314.006Z" fill="#01A3FF"/>
<path d="M548.086 309.334C548.086 308.23 548.854 307.702 549.494 307.238C549.99 306.886 550.422 306.582 550.422 306.102C550.422 305.606 550.054 305.19 549.174 305.19C548.374 305.19 547.702 305.59 547.206 306.182L545.91 304.726C546.758 303.734 548.038 303.174 549.414 303.174C551.478 303.174 552.742 304.214 552.742 305.702C552.742 307.03 551.878 307.67 551.126 308.198C550.566 308.614 550.07 308.966 550.07 309.558C550.07 309.814 550.198 310.086 550.358 310.23L548.614 310.742C548.278 310.374 548.086 309.894 548.086 309.334ZM548.086 312.886C548.086 312.182 548.678 311.59 549.382 311.59C550.086 311.59 550.678 312.182 550.678 312.886C550.678 313.59 550.086 314.182 549.382 314.182C548.678 314.182 548.086 313.59 548.086 312.886Z" fill="#01A3FF"/>
<rect opacity="0.8" x="261.824" y="182.591" width="76.5877" height="76.5877" rx="9.0053" stroke="url(#paint30_linear_824_78492)" stroke-width="1.33"/>
<rect opacity="0.5" x="257.507" y="178.274" width="85.2219" height="85.2219" rx="12.459" stroke="url(#paint31_linear_824_78492)" stroke-width="1.33"/>
<rect opacity="0.2" x="253.553" y="174.321" width="93.1291" height="93.1291" rx="15.2219" stroke="url(#paint32_linear_824_78492)" stroke-width="1.33"/>
<rect opacity="0.1" x="249.736" y="170.503" width="100.763" height="100.763" rx="18.6756" stroke="url(#paint33_linear_824_78492)" stroke-width="1.33"/>
<rect x="265.642" y="186.63" width="68.7166" height="68.7166" rx="5.31999" fill="url(#paint34_linear_824_78492)"/>
<path d="M292.822 220.771H285.803L284.54 225.94H278.61L285.941 201.976H292.822L300.153 225.94H294.084L292.822 220.771ZM286.702 216.656H291.889L289.295 206.057L286.702 216.656Z" fill="white"/>
<path d="M317.879 201.976V206.126H312.934V221.773H317.879V225.94H302.318V221.773H307.263V206.126H302.318V201.976H317.879Z" fill="white"/>
<path d="M284.553 239.988C284.553 240.3 284.601 240.528 284.696 240.674C284.792 240.815 284.945 240.92 285.156 240.991L284.779 242.136C284.387 242.091 284.051 241.983 283.769 241.812C283.488 241.641 283.274 241.383 283.129 241.036C282.837 241.403 282.468 241.679 282.021 241.865C281.574 242.051 281.096 242.144 280.589 242.144C279.785 242.144 279.147 241.918 278.675 241.465C278.207 241.008 277.974 240.41 277.974 239.672C277.974 238.833 278.3 238.187 278.953 237.735C279.607 237.283 280.541 237.056 281.757 237.056H282.895V236.536C282.895 236.024 282.739 235.655 282.428 235.429C282.121 235.202 281.687 235.089 281.124 235.089C280.863 235.089 280.546 235.125 280.174 235.195C279.803 235.26 279.413 235.363 279.006 235.504L278.592 234.313C279.089 234.127 279.576 233.992 280.054 233.906C280.531 233.816 280.973 233.77 281.38 233.77C282.445 233.77 283.239 234.007 283.762 234.479C284.289 234.951 284.553 235.604 284.553 236.438V239.988ZM281.101 240.9C281.443 240.9 281.777 240.81 282.104 240.629C282.43 240.448 282.694 240.194 282.895 239.868V238.112H281.961C281.167 238.112 280.599 238.245 280.257 238.511C279.916 238.772 279.745 239.134 279.745 239.596C279.745 240.018 279.858 240.342 280.084 240.569C280.315 240.79 280.654 240.9 281.101 240.9Z" fill="white"/>
<path d="M294.209 232.972L294.661 234.373C294.345 234.479 293.996 234.549 293.614 234.584C293.237 234.62 292.815 234.637 292.348 234.637C292.825 234.848 293.184 235.12 293.425 235.451C293.667 235.778 293.787 236.18 293.787 236.657C293.787 237.175 293.662 237.637 293.41 238.044C293.159 238.451 292.8 238.77 292.333 239.001C291.865 239.232 291.305 239.348 290.652 239.348C290.421 239.348 290.22 239.338 290.049 239.317C289.883 239.297 289.72 239.265 289.559 239.219C289.459 239.29 289.373 239.385 289.303 239.506C289.238 239.621 289.205 239.745 289.205 239.875C289.205 240.036 289.27 240.177 289.401 240.297C289.537 240.413 289.803 240.471 290.2 240.471H291.586C292.154 240.471 292.654 240.569 293.086 240.765C293.523 240.955 293.865 241.219 294.111 241.556C294.362 241.887 294.488 242.264 294.488 242.686C294.488 243.48 294.146 244.096 293.463 244.533C292.78 244.97 291.795 245.189 290.509 245.189C289.599 245.189 288.886 245.096 288.368 244.91C287.851 244.724 287.487 244.447 287.276 244.081C287.064 243.714 286.959 243.264 286.959 242.732H288.474C288.474 243.008 288.527 243.237 288.632 243.417C288.743 243.598 288.946 243.734 289.243 243.824C289.539 243.915 289.966 243.96 290.524 243.96C291.082 243.96 291.524 243.912 291.85 243.817C292.182 243.726 292.421 243.593 292.566 243.417C292.717 243.247 292.792 243.041 292.792 242.799C292.792 242.478 292.652 242.229 292.37 242.053C292.089 241.877 291.712 241.789 291.24 241.789H289.876C289.122 241.789 288.569 241.636 288.218 241.33C287.871 241.023 287.698 240.667 287.698 240.26C287.698 239.988 287.773 239.727 287.924 239.476C288.079 239.225 288.301 239.006 288.587 238.82C288.11 238.569 287.76 238.265 287.539 237.908C287.323 237.546 287.215 237.109 287.215 236.597C287.215 236.034 287.356 235.542 287.637 235.12C287.919 234.698 288.308 234.368 288.805 234.132C289.308 233.896 289.886 233.778 290.539 233.778C291.177 233.778 291.71 233.745 292.137 233.68C292.564 233.61 292.936 233.512 293.252 233.386C293.574 233.261 293.893 233.122 294.209 232.972ZM290.554 234.939C290.016 234.939 289.612 235.092 289.341 235.398C289.069 235.7 288.934 236.094 288.934 236.582C288.934 237.084 289.072 237.489 289.348 237.795C289.629 238.097 290.039 238.247 290.577 238.247C291.074 238.247 291.453 238.102 291.715 237.81C291.981 237.519 292.114 237.104 292.114 236.567C292.114 236.024 291.983 235.617 291.722 235.346C291.461 235.074 291.071 234.939 290.554 234.939Z" fill="white"/>
<path d="M297.949 238.504C297.984 239.046 298.1 239.491 298.296 239.838C298.492 240.179 298.748 240.43 299.064 240.591C299.386 240.752 299.738 240.832 300.12 240.832C300.512 240.832 300.873 240.772 301.205 240.651C301.537 240.531 301.871 240.36 302.207 240.139L302.938 241.149C302.567 241.45 302.132 241.692 301.634 241.872C301.137 242.053 300.604 242.144 300.037 242.144C299.213 242.144 298.514 241.968 297.942 241.616C297.374 241.264 296.942 240.775 296.645 240.147C296.349 239.518 296.201 238.792 296.201 237.968C296.201 237.17 296.346 236.456 296.638 235.828C296.929 235.195 297.346 234.695 297.889 234.328C298.431 233.956 299.08 233.77 299.833 233.77C300.542 233.77 301.15 233.931 301.657 234.253C302.17 234.574 302.564 235.032 302.84 235.625C303.122 236.212 303.262 236.921 303.262 237.75C303.262 237.886 303.257 238.021 303.247 238.157C303.242 238.287 303.235 238.403 303.225 238.504H297.949ZM299.848 235.022C299.321 235.022 298.884 235.21 298.537 235.587C298.195 235.964 297.997 236.552 297.942 237.35H301.627C301.612 236.602 301.451 236.026 301.145 235.625C300.843 235.223 300.411 235.022 299.848 235.022Z" fill="white"/>
<path d="M305.585 241.94V233.982H307.04L307.168 235.014C307.5 234.607 307.892 234.298 308.344 234.087C308.796 233.876 309.261 233.77 309.738 233.77C310.482 233.77 311.037 233.979 311.404 234.396C311.775 234.808 311.961 235.388 311.961 236.137V241.94H310.273V236.974C310.273 236.511 310.246 236.14 310.19 235.858C310.135 235.577 310.024 235.373 309.859 235.248C309.698 235.122 309.457 235.059 309.135 235.059C308.879 235.059 308.635 235.115 308.404 235.225C308.173 235.336 307.962 235.481 307.771 235.662C307.58 235.838 307.414 236.026 307.274 236.227V241.94H305.585Z" fill="white"/>
<path d="M321.271 241.518C320.979 241.704 320.63 241.855 320.223 241.97C319.816 242.086 319.392 242.144 318.95 242.144C318.025 242.144 317.322 241.905 316.839 241.428C316.362 240.945 316.123 240.312 316.123 239.528V235.21H314.352V233.982H316.123V232.203L317.811 231.999V233.982H320.495L320.306 235.21H317.811V239.513C317.811 239.941 317.917 240.26 318.128 240.471C318.344 240.677 318.696 240.78 319.183 240.78C319.475 240.78 319.743 240.744 319.99 240.674C320.236 240.604 320.459 240.513 320.66 240.403L321.271 241.518Z" fill="white"/>
<path fill-rule="evenodd" clip-rule="evenodd" d="M322.833 252.244H327.709C329.668 252.244 331.256 250.656 331.256 248.697V244.264H329.926V248.697C329.926 249.921 328.934 250.914 327.709 250.914H322.833V252.244ZM329.926 198.157L331.256 198.157V193.28C331.256 191.322 329.668 189.734 327.709 189.734H322.833V191.064H327.709C328.934 191.064 329.926 192.056 329.926 193.28V198.157ZM276.727 252.244V250.914H272.293C271.069 250.914 270.076 249.921 270.076 248.697V244.264H268.746V248.697C268.746 250.656 270.334 252.244 272.293 252.244H276.727ZM268.746 198.157L270.076 198.157V193.28C270.076 192.056 271.069 191.064 272.293 191.064H276.727V189.734H272.293C270.334 189.734 268.746 191.322 268.746 193.28V198.157Z" fill="white"/>
<line x1="300.725" y1="259.843" x2="300.725" y2="288.333" stroke="url(#paint35_linear_824_78492)" stroke-width="2"/>
<mask id="mask0_824_78492" style="mask-type:alpha" maskUnits="userSpaceOnUse" x="89" y="91" width="419" height="91">
<rect width="417.499" height="90.2596" transform="matrix(1 0 0 -1 89.5117 181.926)" fill="#D9D9D9"/>
</mask>
<g mask="url(#mask0_824_78492)">
<path d="M105.497 109.272C105.497 111.163 107.029 112.695 108.92 112.695C110.81 112.695 112.343 111.163 112.343 109.272C112.343 107.382 110.81 105.849 108.92 105.849C107.029 105.849 105.497 107.382 105.497 109.272ZM108.278 109.272C108.278 114.521 111.473 119.09 116.818 123.108C122.167 127.13 129.769 130.681 138.828 133.895C156.953 140.326 181.097 145.47 205.188 150.277C229.305 155.089 253.368 159.563 271.41 164.657C280.435 167.205 287.905 169.896 293.108 172.838C298.359 175.807 301.066 178.899 301.066 182.164H302.35C302.35 178.133 299.032 174.714 293.74 171.721C288.4 168.701 280.809 165.977 271.759 163.422C253.654 158.31 229.519 153.823 205.439 149.018C181.334 144.208 157.281 139.08 139.258 132.686C130.243 129.487 122.784 125.988 117.589 122.082C112.391 118.174 109.562 113.939 109.562 109.272H108.278Z" fill="url(#paint36_linear_824_78492)"/>
<path d="M154.19 99.9922C154.19 101.883 155.723 103.415 157.613 103.415C159.504 103.415 161.036 101.883 161.036 99.9922C161.036 98.1017 159.504 96.5691 157.613 96.5691C155.723 96.5691 154.19 98.1017 154.19 99.9922ZM156.971 99.9922C156.971 111.541 166.293 120.356 179.826 127.585C193.399 134.836 211.471 140.631 229.476 146.039C247.513 151.457 265.475 156.486 278.942 162.21C285.674 165.072 291.233 168.088 295.1 171.38C298.964 174.67 301.066 178.171 301.066 182.014H302.349C302.349 177.647 299.948 173.822 295.932 170.403C291.918 166.985 286.22 163.909 279.444 161.029C265.893 155.269 247.831 150.213 229.845 144.81C211.826 139.397 193.874 133.634 180.43 126.453C166.945 119.25 158.255 110.759 158.255 99.9922H156.971Z" fill="url(#paint37_linear_824_78492)"/>
<path d="M218.784 109.272C218.784 111.163 220.317 112.695 222.207 112.695C224.098 112.695 225.63 111.163 225.63 109.272C225.63 107.382 224.098 105.849 222.207 105.849C220.317 105.849 218.784 107.382 218.784 109.272ZM221.565 109.272C221.565 119.417 226.671 127.254 234.211 133.728C241.735 140.189 251.745 145.346 261.678 150.142C271.647 154.956 281.521 159.4 288.923 164.457C296.333 169.52 301.065 175.066 301.065 182.015H302.349C302.349 174.4 297.144 168.519 289.647 163.397C282.143 158.269 272.142 153.77 262.236 148.986C252.294 144.186 242.429 139.092 235.047 132.754C227.681 126.429 222.849 118.918 222.849 109.272H221.565Z" fill="url(#paint38_linear_824_78492)"/>
<path d="M269.466 99.9922C269.466 101.883 270.998 103.415 272.889 103.415C274.779 103.415 276.312 101.883 276.312 99.9922C276.312 98.1017 274.779 96.5691 272.889 96.5691C270.998 96.5691 269.466 98.1017 269.466 99.9922ZM272.247 99.9922C272.247 122.486 279.524 134.907 286.764 145.78C293.988 156.63 301.066 165.818 301.066 182.014H302.349C302.349 165.368 295.018 155.861 287.832 145.069C280.662 134.3 273.53 122.13 273.53 99.9922H272.247Z" fill="url(#paint39_linear_824_78492)"/>
<path d="M496.924 109.272C496.924 111.163 495.391 112.695 493.501 112.695C491.61 112.695 490.078 111.163 490.078 109.272C490.078 107.382 491.61 105.849 493.501 105.849C495.391 105.849 496.924 107.382 496.924 109.272ZM494.143 109.272C494.143 114.529 490.966 119.107 485.647 123.134C480.326 127.164 472.762 130.723 463.749 133.944C445.717 140.388 421.698 145.543 397.73 150.359C373.737 155.181 349.799 159.665 331.85 164.769C322.873 167.322 315.441 170.018 310.266 172.966C305.044 175.941 302.349 179.038 302.349 182.314H301.065C301.065 178.278 304.363 174.851 309.63 171.851C314.944 168.824 322.496 166.095 331.499 163.535C349.511 158.412 373.522 153.915 397.477 149.101C421.459 144.281 445.387 139.143 463.317 132.735C472.285 129.531 479.705 126.024 484.872 122.111C490.043 118.195 492.859 113.951 492.859 109.272H494.143Z" fill="url(#paint40_linear_824_78492)"/>
<path d="M448.231 93.7061C448.231 95.5966 446.698 97.1291 444.808 97.1291C442.917 97.1291 441.385 95.5966 441.385 93.7061C441.385 91.8155 442.917 90.283 444.808 90.283C446.698 90.283 448.231 91.8155 448.231 93.7061ZM445.449 93.7061C445.449 106.084 436.228 115.566 422.77 123.36C409.287 131.167 391.336 137.408 373.456 143.231C355.542 149.065 337.707 154.478 324.335 160.639C317.651 163.72 312.132 166.966 308.291 170.511C304.457 174.05 302.349 177.836 302.349 182.015H301.065C301.065 177.354 303.43 173.251 307.421 169.567C311.406 165.889 317.067 162.576 323.798 159.474C337.258 153.271 355.198 147.827 373.059 142.01C390.954 136.182 408.778 129.979 422.127 122.249C435.5 114.504 444.166 105.354 444.166 93.7061H445.449Z" fill="url(#paint41_linear_824_78492)"/>
<path d="M384.63 104.183C384.63 106.074 383.098 107.606 381.207 107.606C379.317 107.606 377.784 106.074 377.784 104.183C377.784 102.293 379.317 100.76 381.207 100.76C383.098 100.76 384.63 102.293 384.63 104.183ZM381.849 104.183C381.849 115.004 376.76 123.374 369.219 130.302C361.695 137.214 351.686 142.732 341.752 147.864C331.782 153.015 321.909 157.769 314.508 163.18C307.107 168.59 302.349 174.536 302.349 182.015H301.065C301.065 173.911 306.244 167.631 313.75 162.143C321.255 156.657 331.257 151.842 341.162 146.724C351.103 141.588 360.969 136.138 368.351 129.356C375.716 122.59 380.565 114.539 380.565 104.183H381.849Z" fill="url(#paint42_linear_824_78492)"/>
<path d="M333.948 109.871C333.948 111.761 332.416 113.294 330.525 113.294C328.635 113.294 327.102 111.761 327.102 109.871C327.102 107.98 328.635 106.448 330.525 106.448C332.416 106.448 333.948 107.98 333.948 109.871ZM331.167 109.871C331.167 121.1 329.354 129.224 326.612 135.607C323.871 141.988 320.217 146.592 316.602 150.783C312.973 154.989 309.431 158.733 306.769 163.477C304.124 168.193 302.348 173.909 302.348 182.014H301.065C301.065 173.699 302.892 167.765 305.65 162.849C308.392 157.961 312.054 154.09 315.63 149.944C319.219 145.784 322.77 141.299 325.433 135.101C328.095 128.904 329.884 120.957 329.884 109.871H331.167Z" fill="url(#paint43_linear_824_78492)"/>
<g opacity="0.3">
<path d="M455.683 119.143C455.683 121.033 454.15 122.566 452.26 122.566C450.369 122.566 448.837 121.033 448.837 119.143C448.837 117.252 450.369 115.72 452.26 115.72C454.15 115.72 455.683 117.252 455.683 119.143ZM452.858 119.375C451.412 123.099 447.858 126.322 442.915 129.192C437.955 132.071 431.501 134.648 424.105 137.034C409.313 141.806 390.626 145.852 372.333 149.994C354.014 154.142 336.094 158.387 322.756 163.559C316.085 166.146 310.607 168.947 306.807 172.054C303.01 175.159 300.963 178.502 300.963 182.185H299.679C299.679 177.967 302.039 174.294 305.995 171.06C309.949 167.828 315.573 164.968 322.292 162.362C335.734 157.149 353.75 152.886 372.049 148.742C390.374 144.593 408.989 140.562 423.711 135.813C431.071 133.438 437.426 130.894 442.27 128.082C447.131 125.26 450.375 122.224 451.661 118.91L452.858 119.375Z" fill="url(#paint44_linear_824_78492)"/>
<path d="M417.306 111.117C417.306 113.007 415.773 114.54 413.883 114.54C411.992 114.54 410.46 113.007 410.46 111.117C410.46 109.226 411.992 107.694 413.883 107.694C415.773 107.694 417.306 109.226 417.306 111.117ZM414.512 111.242C413.868 114.477 411.798 117.384 408.742 120.065C405.686 122.747 401.594 125.244 396.811 127.652C387.251 132.466 374.783 136.992 361.995 141.931C349.183 146.88 336.028 152.249 325.001 158.765C313.965 165.287 305.146 172.908 300.905 182.319L299.735 181.791C304.137 172.023 313.228 164.231 324.348 157.66C335.476 151.084 348.721 145.682 361.533 140.734C374.369 135.776 386.747 131.282 396.234 126.506C400.974 124.119 404.957 121.679 407.896 119.1C410.836 116.52 412.685 113.844 413.253 110.991L414.512 111.242Z" fill="url(#paint45_linear_824_78492)"/>
<path d="M354.32 119.151C354.32 121.041 352.787 122.574 350.896 122.574C349.006 122.574 347.473 121.041 347.473 119.151C347.473 117.26 349.006 115.728 350.896 115.728C352.787 115.728 354.32 117.26 354.32 119.151ZM351.538 119.151C351.538 126.409 348.259 131.99 343.428 136.755C338.618 141.499 332.215 145.487 325.903 149.551C313.179 157.743 300.857 166.248 300.857 182.015L299.573 182.015C299.573 165.451 312.592 156.594 325.208 148.472C331.567 144.378 337.834 140.47 342.527 135.841C347.199 131.233 350.255 125.962 350.255 119.151H351.538Z" fill="url(#paint46_linear_824_78492)"/>
<path d="M317.551 111.068C317.551 112.959 316.018 114.491 314.128 114.491C312.237 114.491 310.705 112.959 310.705 111.068C310.705 109.178 312.237 107.645 314.128 107.645C316.018 107.645 317.551 109.178 317.551 111.068ZM314.77 111.068C314.77 130.47 311.269 141.182 307.773 150.589C304.293 159.956 300.857 167.941 300.857 182.015H299.574C299.574 167.681 303.094 159.495 306.57 150.142C310.031 140.829 313.486 130.272 313.486 111.068H314.77Z" fill="url(#paint47_linear_824_78492)"/>
<path d="M139.284 117.355C139.284 119.245 140.817 120.778 142.707 120.778C144.598 120.778 146.13 119.245 146.13 117.355C146.13 115.464 144.598 113.932 142.707 113.932C140.817 113.932 139.284 115.464 139.284 117.355ZM142.184 117.727C144.876 121.511 149.396 124.906 155.167 128.01C160.948 131.121 168.039 133.969 175.933 136.637C191.718 141.973 210.799 146.615 229.185 151.187C247.594 155.764 265.297 160.268 278.398 165.333C284.951 167.866 290.307 170.523 294.014 173.371C297.73 176.225 299.68 179.184 299.68 182.314H300.964C300.964 178.596 298.641 175.306 294.796 172.353C290.944 169.394 285.454 166.684 278.861 164.135C265.67 159.036 247.882 154.513 229.495 149.941C211.087 145.364 192.068 140.736 176.344 135.421C168.483 132.764 161.467 129.942 155.775 126.88C150.074 123.813 145.755 120.532 143.23 116.983L142.184 117.727Z" fill="url(#paint48_linear_824_78492)"/>
<path d="M184.118 105.68C184.118 107.571 185.651 109.103 187.541 109.103C189.432 109.103 190.964 107.571 190.964 105.68C190.964 103.79 189.432 102.257 187.541 102.257C185.651 102.257 184.118 103.79 184.118 105.68ZM186.899 105.68C186.899 116.411 194.193 124.431 204.828 130.932C215.471 137.437 229.636 142.53 243.723 147.359C257.846 152.201 271.883 156.775 282.402 162.247C292.967 167.744 299.679 173.993 299.679 182.055L300.962 182.055C300.962 173.184 293.576 166.614 282.995 161.109C272.368 155.58 258.211 150.969 244.139 146.145C230.031 141.309 216.001 136.256 205.498 129.836C194.986 123.412 188.183 115.728 188.183 105.68H186.899Z" fill="url(#paint49_linear_824_78492)"/>
<path d="M242.136 113.613C242.136 115.503 243.669 117.036 245.56 117.036C247.45 117.036 248.983 115.503 248.983 113.613C248.983 111.722 247.45 110.19 245.56 110.19C243.669 110.19 242.136 111.722 242.136 113.613ZM244.918 113.613C244.918 132.344 258.983 140.597 272.616 148.581C286.371 156.637 299.679 164.42 299.679 182.055H300.963C300.963 163.579 286.89 155.454 273.265 147.474C259.517 139.422 246.201 131.51 246.201 113.613H244.918Z" fill="url(#paint50_linear_824_78492)"/>
<path d="M290.83 119.75C290.83 121.64 292.362 123.173 294.253 123.173C296.143 123.173 297.676 121.64 297.676 119.75C297.676 117.859 296.143 116.326 294.253 116.326C292.362 116.326 290.83 117.859 290.83 119.75ZM293.611 119.75C293.611 139.054 295.106 147.578 296.606 154.828C298.094 162.024 299.574 167.909 299.574 182.015H300.857C300.857 167.775 299.356 161.788 297.863 154.568C296.381 147.402 294.895 138.966 294.895 119.75H293.611Z" fill="url(#paint51_linear_824_78492)"/>
</g>
</g>
<defs>
<filter id="filter0_di_824_78492" x="56.2676" y="13.031" width="84.7744" height="61.0183" filterUnits="userSpaceOnUse" color-interpolation-filters="sRGB">
<feFlood flood-opacity="0" result="BackgroundImageFix"/>
<feColorMatrix in="SourceAlpha" type="matrix" values="0 0 0 0 0 0 0 0 0 0 0 0 0 0 0 0 0 0 127 0" result="hardAlpha"/>
<feOffset dy="6"/>
<feGaussianBlur stdDeviation="5"/>
<feComposite in2="hardAlpha" operator="out"/>
<feColorMatrix type="matrix" values="0 0 0 0 0 0 0 0 0 0 0 0 0 0 0 0 0 0 0.2 0"/>
<feBlend mode="normal" in2="BackgroundImageFix" result="effect1_dropShadow_824_78492"/>
<feBlend mode="normal" in="SourceGraphic" in2="effect1_dropShadow_824_78492" result="shape"/>
<feColorMatrix in="SourceAlpha" type="matrix" values="0 0 0 0 0 0 0 0 0 0 0 0 0 0 0 0 0 0 127 0" result="hardAlpha"/>
<feOffset dx="1" dy="-1"/>
<feComposite in2="hardAlpha" operator="arithmetic" k2="-1" k3="1"/>
<feColorMatrix type="matrix" values="0 0 0 0 1 0 0 0 0 1 0 0 0 0 1 0 0 0 1 0"/>
<feBlend mode="normal" in2="shape" result="effect2_innerShadow_824_78492"/>
</filter>
<filter id="filter1_di_824_78492" x="227.268" y="13.031" width="84.7744" height="61.0183" filterUnits="userSpaceOnUse" color-interpolation-filters="sRGB">
<feFlood flood-opacity="0" result="BackgroundImageFix"/>
<feColorMatrix in="SourceAlpha" type="matrix" values="0 0 0 0 0 0 0 0 0 0 0 0 0 0 0 0 0 0 127 0" result="hardAlpha"/>
<feOffset dy="6"/>
<feGaussianBlur stdDeviation="5"/>
<feComposite in2="hardAlpha" operator="out"/>
<feColorMatrix type="matrix" values="0 0 0 0 0 0 0 0 0 0 0 0 0 0 0 0 0 0 0.2 0"/>
<feBlend mode="normal" in2="BackgroundImageFix" result="effect1_dropShadow_824_78492"/>
<feBlend mode="normal" in="SourceGraphic" in2="effect1_dropShadow_824_78492" result="shape"/>
<feColorMatrix in="SourceAlpha" type="matrix" values="0 0 0 0 0 0 0 0 0 0 0 0 0 0 0 0 0 0 127 0" result="hardAlpha"/>
<feOffset dx="1" dy="-1"/>
<feComposite in2="hardAlpha" operator="arithmetic" k2="-1" k3="1"/>
<feColorMatrix type="matrix" values="0 0 0 0 1 0 0 0 0 1 0 0 0 0 1 0 0 0 1 0"/>
<feBlend mode="normal" in2="shape" result="effect2_innerShadow_824_78492"/>
</filter>
<filter id="filter2_f_824_78492" x="429.682" y="17.2003" width="33.4984" height="33.4985" filterUnits="userSpaceOnUse" color-interpolation-filters="sRGB">
<feFlood flood-opacity="0" result="BackgroundImageFix"/>
<feBlend mode="normal" in="SourceGraphic" in2="BackgroundImageFix" result="shape"/>
<feGaussianBlur stdDeviation="1.36728" result="effect1_foregroundBlur_824_78492"/>
</filter>
<filter id="filter3_f_824_78492" x="429.681" y="17.2001" width="33.4994" height="33.4988" filterUnits="userSpaceOnUse" color-interpolation-filters="sRGB">
<feFlood flood-opacity="0" result="BackgroundImageFix"/>
<feBlend mode="normal" in="SourceGraphic" in2="BackgroundImageFix" result="shape"/>
<feGaussianBlur stdDeviation="1.36728" result="effect1_foregroundBlur_824_78492"/>
</filter>
<filter id="filter4_di_824_78492" x="395.268" y="23.8022" width="84.7744" height="61.0182" filterUnits="userSpaceOnUse" color-interpolation-filters="sRGB">
<feFlood flood-opacity="0" result="BackgroundImageFix"/>
<feColorMatrix in="SourceAlpha" type="matrix" values="0 0 0 0 0 0 0 0 0 0 0 0 0 0 0 0 0 0 127 0" result="hardAlpha"/>
<feOffset dy="6"/>
<feGaussianBlur stdDeviation="5"/>
<feComposite in2="hardAlpha" operator="out"/>
<feColorMatrix type="matrix" values="0 0 0 0 0 0 0 0 0 0 0 0 0 0 0 0 0 0 0.2 0"/>
<feBlend mode="normal" in2="BackgroundImageFix" result="effect1_dropShadow_824_78492"/>
<feBlend mode="normal" in="SourceGraphic" in2="effect1_dropShadow_824_78492" result="shape"/>
<feColorMatrix in="SourceAlpha" type="matrix" values="0 0 0 0 0 0 0 0 0 0 0 0 0 0 0 0 0 0 127 0" result="hardAlpha"/>
<feOffset dx="1" dy="-1"/>
<feComposite in2="hardAlpha" operator="arithmetic" k2="-1" k3="1"/>
<feColorMatrix type="matrix" values="0 0 0 0 1 0 0 0 0 1 0 0 0 0 1 0 0 0 1 0"/>
<feBlend mode="normal" in2="shape" result="effect2_innerShadow_824_78492"/>
</filter>
<linearGradient id="paint0_linear_824_78492" x1="98.8263" y1="41.3" x2="98.7408" y2="74.4565" gradientUnits="userSpaceOnUse">
<stop offset="0.317708" stop-color="#3675D7"/>
<stop offset="0.723958" stop-color="#25CDF4"/>
<stop offset="0.885417" stop-color="#7CDEE9"/>
<stop offset="1" stop-color="#67EBF7"/>
</linearGradient>
<linearGradient id="paint1_linear_824_78492" x1="76.2088" y1="46.0416" x2="119.959" y2="37.5402" gradientUnits="userSpaceOnUse">
<stop offset="0.0254174" stop-color="#F1F8FF"/>
<stop offset="1" stop-color="white"/>
</linearGradient>
<linearGradient id="paint2_linear_824_78492" x1="269.92" y1="46.0858" x2="269.885" y2="71.9392" gradientUnits="userSpaceOnUse">
<stop offset="0.317708" stop-color="#3675D7"/>
<stop offset="0.723958" stop-color="#25CDF4"/>
<stop offset="0.885417" stop-color="#7CDEE9"/>
<stop offset="1" stop-color="#67EBF7"/>
</linearGradient>
<linearGradient id="paint3_linear_824_78492" x1="269.92" y1="46.0858" x2="269.885" y2="71.9392" gradientUnits="userSpaceOnUse">
<stop offset="0.317708" stop-color="#3675D7"/>
<stop offset="0.723958" stop-color="#25CDF4"/>
<stop offset="0.885417" stop-color="#7CDEE9"/>
<stop offset="1" stop-color="#67EBF7"/>
</linearGradient>
<linearGradient id="paint4_linear_824_78492" x1="269.92" y1="46.0858" x2="269.885" y2="71.9392" gradientUnits="userSpaceOnUse">
<stop offset="0.317708" stop-color="#3675D7"/>
<stop offset="0.723958" stop-color="#25CDF4"/>
<stop offset="0.885417" stop-color="#7CDEE9"/>
<stop offset="1" stop-color="#67EBF7"/>
</linearGradient>
<linearGradient id="paint5_linear_824_78492" x1="269.92" y1="46.0858" x2="269.885" y2="71.9392" gradientUnits="userSpaceOnUse">
<stop offset="0.317708" stop-color="#3675D7"/>
<stop offset="0.723958" stop-color="#25CDF4"/>
<stop offset="0.885417" stop-color="#7CDEE9"/>
<stop offset="1" stop-color="#67EBF7"/>
</linearGradient>
<linearGradient id="paint6_linear_824_78492" x1="269.92" y1="46.0858" x2="269.885" y2="71.9392" gradientUnits="userSpaceOnUse">
<stop offset="0.317708" stop-color="#3675D7"/>
<stop offset="0.723958" stop-color="#25CDF4"/>
<stop offset="0.885417" stop-color="#7CDEE9"/>
<stop offset="1" stop-color="#67EBF7"/>
</linearGradient>
<linearGradient id="paint7_linear_824_78492" x1="269.92" y1="46.0858" x2="269.885" y2="71.9392" gradientUnits="userSpaceOnUse">
<stop offset="0.317708" stop-color="#3675D7"/>
<stop offset="0.723958" stop-color="#25CDF4"/>
<stop offset="0.885417" stop-color="#7CDEE9"/>
<stop offset="1" stop-color="#67EBF7"/>
</linearGradient>
<linearGradient id="paint8_linear_824_78492" x1="269.92" y1="46.0858" x2="269.885" y2="71.9392" gradientUnits="userSpaceOnUse">
<stop offset="0.317708" stop-color="#3675D7"/>
<stop offset="0.723958" stop-color="#25CDF4"/>
<stop offset="0.885417" stop-color="#7CDEE9"/>
<stop offset="1" stop-color="#67EBF7"/>
</linearGradient>
<linearGradient id="paint9_linear_824_78492" x1="247.209" y1="46.0416" x2="290.959" y2="37.5402" gradientUnits="userSpaceOnUse">
<stop offset="0.0254174" stop-color="#F1F8FF"/>
<stop offset="1" stop-color="white"/>
</linearGradient>
<radialGradient id="paint10_radial_824_78492" cx="0" cy="0" r="1" gradientUnits="userSpaceOnUse" gradientTransform="translate(452.158 17.6273) rotate(116.287) scale(31.4526)">
<stop offset="0.142953" stop-color="#F43023"/>
<stop offset="0.531374" stop-color="#F98029"/>
<stop offset="0.84375" stop-color="#FDC912"/>
<stop offset="1" stop-color="#FFF120"/>
</radialGradient>
<radialGradient id="paint11_radial_824_78492" cx="0" cy="0" r="1" gradientUnits="userSpaceOnUse" gradientTransform="translate(467.881 20.9603) rotate(142.73) scale(26.9531)">
<stop offset="0.640109" stop-color="#F43023"/>
<stop offset="0.81709" stop-color="#F64B25" stop-opacity="0.657723"/>
<stop offset="0.95813" stop-color="#F98029" stop-opacity="0"/>
<stop offset="1" stop-color="#FFEC1E" stop-opacity="0"/>
</radialGradient>
<radialGradient id="paint12_radial_824_78492" cx="0" cy="0" r="1" gradientUnits="userSpaceOnUse" gradientTransform="translate(438.057 13.8677) rotate(72.5252) scale(24.1891)">
<stop offset="0.610933" stop-color="#F43023"/>
<stop offset="0.767948" stop-color="#F64B25" stop-opacity="0.657723"/>
<stop offset="0.850078" stop-color="#F98029" stop-opacity="0"/>
<stop offset="1" stop-color="#FFEC1E" stop-opacity="0"/>
</radialGradient>
<radialGradient id="paint13_radial_824_78492" cx="0" cy="0" r="1" gradientUnits="userSpaceOnUse" gradientTransform="translate(451.558 24.3758) rotate(120.594) scale(25.5164)">
<stop offset="0.177083" stop-color="#EC4530"/>
<stop offset="0.46875" stop-color="#FEEA45"/>
<stop offset="0.986285" stop-color="#FFFBBC"/>
</radialGradient>
<radialGradient id="paint14_radial_824_78492" cx="0" cy="0" r="1" gradientUnits="userSpaceOnUse" gradientTransform="translate(451.558 24.3758) rotate(120.291) scale(25.2391)">
<stop stop-color="#FFF5D0" stop-opacity="0"/>
<stop offset="0.848853" stop-color="#FFEA1E" stop-opacity="0"/>
<stop offset="0.989583" stop-color="#FFFCD3"/>
</radialGradient>
<linearGradient id="paint15_linear_824_78492" x1="415.209" y1="56.8128" x2="458.959" y2="48.3113" gradientUnits="userSpaceOnUse">
<stop offset="0.0254174" stop-color="#F1F8FF"/>
<stop offset="1" stop-color="white"/>
</linearGradient>
<linearGradient id="paint16_linear_824_78492" x1="209.277" y1="115.512" x2="209.277" y2="2.74831" gradientUnits="userSpaceOnUse">
<stop stop-color="#01C9BD" stop-opacity="0"/>
<stop offset="1" stop-color="#018DDC"/>
</linearGradient>
<linearGradient id="paint17_linear_824_78492" x1="385.804" y1="115.512" x2="385.804" y2="2.74831" gradientUnits="userSpaceOnUse">
<stop stop-color="#01C9BD" stop-opacity="0"/>
<stop offset="1" stop-color="#018DDC"/>
</linearGradient>
<linearGradient id="paint18_linear_824_78492" x1="153.882" y1="50.1938" x2="170.051" y2="27.3824" gradientUnits="userSpaceOnUse">
<stop stop-color="#01C9BD"/>
<stop offset="1" stop-color="#018DDC"/>
</linearGradient>
<linearGradient id="paint19_linear_824_78492" x1="153.882" y1="50.1938" x2="170.051" y2="27.3824" gradientUnits="userSpaceOnUse">
<stop stop-color="#01C9BD"/>
<stop offset="1" stop-color="#018DDC"/>
</linearGradient>
<linearGradient id="paint20_linear_824_78492" x1="153.882" y1="50.1938" x2="170.051" y2="27.3824" gradientUnits="userSpaceOnUse">
<stop stop-color="#01C9BD"/>
<stop offset="1" stop-color="#018DDC"/>
</linearGradient>
<linearGradient id="paint21_linear_824_78492" x1="153.882" y1="50.1938" x2="170.051" y2="27.3824" gradientUnits="userSpaceOnUse">
<stop stop-color="#01C9BD"/>
<stop offset="1" stop-color="#018DDC"/>
</linearGradient>
<linearGradient id="paint22_linear_824_78492" x1="493.662" y1="50.1938" x2="509.711" y2="27.0526" gradientUnits="userSpaceOnUse">
<stop stop-color="#01C9BD"/>
<stop offset="1" stop-color="#018DDC"/>
</linearGradient>
<linearGradient id="paint23_linear_824_78492" x1="493.662" y1="50.1938" x2="509.711" y2="27.0526" gradientUnits="userSpaceOnUse">
<stop stop-color="#01C9BD"/>
<stop offset="1" stop-color="#018DDC"/>
</linearGradient>
<linearGradient id="paint24_linear_824_78492" x1="493.662" y1="50.1938" x2="509.711" y2="27.0526" gradientUnits="userSpaceOnUse">
<stop stop-color="#01C9BD"/>
<stop offset="1" stop-color="#018DDC"/>
</linearGradient>
<linearGradient id="paint25_linear_824_78492" x1="493.662" y1="50.1938" x2="509.711" y2="27.0526" gradientUnits="userSpaceOnUse">
<stop stop-color="#01C9BD"/>
<stop offset="1" stop-color="#018DDC"/>
</linearGradient>
<linearGradient id="paint26_linear_824_78492" x1="327.593" y1="50.1938" x2="343.567" y2="26.8572" gradientUnits="userSpaceOnUse">
<stop stop-color="#01C9BD"/>
<stop offset="1" stop-color="#018DDC"/>
</linearGradient>
<linearGradient id="paint27_linear_824_78492" x1="327.593" y1="50.1938" x2="343.567" y2="26.8572" gradientUnits="userSpaceOnUse">
<stop stop-color="#01C9BD"/>
<stop offset="1" stop-color="#018DDC"/>
</linearGradient>
<linearGradient id="paint28_linear_824_78492" x1="327.593" y1="50.1938" x2="343.567" y2="26.8572" gradientUnits="userSpaceOnUse">
<stop stop-color="#01C9BD"/>
<stop offset="1" stop-color="#018DDC"/>
</linearGradient>
<linearGradient id="paint29_linear_824_78492" x1="327.593" y1="50.1938" x2="343.567" y2="26.8572" gradientUnits="userSpaceOnUse">
<stop stop-color="#01C9BD"/>
<stop offset="1" stop-color="#018DDC"/>
</linearGradient>
<linearGradient id="paint30_linear_824_78492" x1="267.59" y1="251.053" x2="344.371" y2="211.153" gradientUnits="userSpaceOnUse">
<stop stop-color="#01C9BD"/>
<stop offset="1" stop-color="#018DDC"/>
</linearGradient>
<linearGradient id="paint31_linear_824_78492" x1="263.986" y1="254.396" x2="349.274" y2="210.074" gradientUnits="userSpaceOnUse">
<stop stop-color="#01C9BD"/>
<stop offset="1" stop-color="#018DDC"/>
</linearGradient>
<linearGradient id="paint32_linear_824_78492" x1="260.684" y1="257.457" x2="353.764" y2="209.087" gradientUnits="userSpaceOnUse">
<stop stop-color="#01C9BD"/>
<stop offset="1" stop-color="#018DDC"/>
</linearGradient>
<linearGradient id="paint33_linear_824_78492" x1="257.498" y1="260.413" x2="358.101" y2="208.133" gradientUnits="userSpaceOnUse">
<stop stop-color="#01C9BD"/>
<stop offset="1" stop-color="#018DDC"/>
</linearGradient>
<linearGradient id="paint34_linear_824_78492" x1="269.632" y1="190.177" x2="309.946" y2="263.476" gradientUnits="userSpaceOnUse">
<stop stop-color="#01C9BD"/>
<stop offset="1" stop-color="#018DDC"/>
</linearGradient>
<linearGradient id="paint35_linear_824_78492" x1="299.624" y1="287.799" x2="299.624" y2="260.508" gradientUnits="userSpaceOnUse">
<stop stop-color="#01C9BD" stop-opacity="0"/>
<stop offset="1" stop-color="#018DDC"/>
</linearGradient>
<linearGradient id="paint36_linear_824_78492" x1="124.832" y1="173.94" x2="208.346" y2="59.1565" gradientUnits="userSpaceOnUse">
<stop stop-color="#01C9BD"/>
<stop offset="1" stop-color="#018DDC"/>
</linearGradient>
<linearGradient id="paint37_linear_824_78492" x1="169.506" y1="172.76" x2="267.865" y2="82.9654" gradientUnits="userSpaceOnUse">
<stop stop-color="#01C9BD"/>
<stop offset="1" stop-color="#018DDC"/>
</linearGradient>
<linearGradient id="paint38_linear_824_78492" x1="228.769" y1="173.807" x2="303.998" y2="131.081" gradientUnits="userSpaceOnUse">
<stop stop-color="#01C9BD"/>
<stop offset="1" stop-color="#018DDC"/>
</linearGradient>
<linearGradient id="paint39_linear_824_78492" x1="275.267" y1="172.76" x2="310.171" y2="166.387" gradientUnits="userSpaceOnUse">
<stop stop-color="#01C9BD"/>
<stop offset="1" stop-color="#018DDC"/>
</linearGradient>
<linearGradient id="paint40_linear_824_78492" x1="477.671" y1="174.073" x2="393.802" y2="59.6296" gradientUnits="userSpaceOnUse">
<stop stop-color="#01C9BD"/>
<stop offset="1" stop-color="#018DDC"/>
</linearGradient>
<linearGradient id="paint41_linear_824_78492" x1="432.996" y1="172.051" x2="328.211" y2="83.8118" gradientUnits="userSpaceOnUse">
<stop stop-color="#01C9BD"/>
<stop offset="1" stop-color="#018DDC"/>
</linearGradient>
<linearGradient id="paint42_linear_824_78492" x1="374.645" y1="173.233" x2="297.021" y2="132.03" gradientUnits="userSpaceOnUse">
<stop stop-color="#01C9BD"/>
<stop offset="1" stop-color="#018DDC"/>
</linearGradient>
<linearGradient id="paint43_linear_824_78492" x1="328.147" y1="173.875" x2="293.57" y2="166.697" gradientUnits="userSpaceOnUse">
<stop stop-color="#01C9BD"/>
<stop offset="1" stop-color="#018DDC"/>
</linearGradient>
<linearGradient id="paint44_linear_824_78492" x1="439.719" y1="175.072" x2="365.691" y2="82.3545" gradientUnits="userSpaceOnUse">
<stop stop-color="#01C9BD"/>
<stop offset="1" stop-color="#018DDC"/>
</linearGradient>
<linearGradient id="paint45_linear_824_78492" x1="404.51" y1="174.051" x2="320.516" y2="104.176" gradientUnits="userSpaceOnUse">
<stop stop-color="#01C9BD"/>
<stop offset="1" stop-color="#018DDC"/>
</linearGradient>
<linearGradient id="paint46_linear_824_78492" x1="346.713" y1="174.922" x2="292.756" y2="152.316" gradientUnits="userSpaceOnUse">
<stop stop-color="#01C9BD"/>
<stop offset="1" stop-color="#018DDC"/>
</linearGradient>
<linearGradient id="paint47_linear_824_78492" x1="312.98" y1="174.01" x2="295.747" y2="172.254" gradientUnits="userSpaceOnUse">
<stop stop-color="#01C9BD"/>
<stop offset="1" stop-color="#018DDC"/>
</linearGradient>
<linearGradient id="paint48_linear_824_78492" x1="155.716" y1="174.985" x2="231.881" y2="78.9487" gradientUnits="userSpaceOnUse">
<stop stop-color="#01C9BD"/>
<stop offset="1" stop-color="#018DDC"/>
</linearGradient>
<linearGradient id="paint49_linear_824_78492" x1="196.85" y1="173.438" x2="285.684" y2="105.27" gradientUnits="userSpaceOnUse">
<stop stop-color="#01C9BD"/>
<stop offset="1" stop-color="#018DDC"/>
</linearGradient>
<linearGradient id="paint50_linear_824_78492" x1="250.079" y1="174.333" x2="308.512" y2="150.037" gradientUnits="userSpaceOnUse">
<stop stop-color="#01C9BD"/>
<stop offset="1" stop-color="#018DDC"/>
</linearGradient>
<linearGradient id="paint51_linear_824_78492" x1="294.745" y1="174.989" x2="302.189" y2="174.619" gradientUnits="userSpaceOnUse">
<stop stop-color="#01C9BD"/>
<stop offset="1" stop-color="#018DDC"/>
</linearGradient>
<clipPath id="clip0_824_78492">
<rect x="432.415" y="19.9323" width="28.0292" height="28.0292" rx="14.0146" fill="white"/>
</clipPath>
</defs>
</svg>
